<svg width="116" height="65" viewBox="0 0 116 65" fill="none" xmlns="http://www.w3.org/2000/svg">
<rect width="116" height="65" fill="white"/>
<path d="M95.3423 26.391C96.5849 26.4213 97.6214 25.3485 97.6517 23.9908C97.688 22.6391 96.7061 21.5117 95.4575 21.4874C94.2149 21.4571 93.1785 22.53 93.1481 23.8877C93.1178 25.2394 94.0998 26.3607 95.3484 26.391" fill="#E42313"/>
<path d="M100.943 48.8602C100.943 48.8602 100.688 48.2723 100.506 47.8722C99.9064 48.6481 95.2998 53.3274 95.8938 42.3019C96.0817 38.8712 96.597 30.143 96.597 30.143C96.6273 29.6702 95.8696 29.6035 95.8696 29.6035C94.7907 29.4581 93.2996 29.4581 92.9602 31.2704C92.2874 34.8829 89.5598 36.5558 89.5598 36.5558C89.5537 36.5558 89.5477 36.5679 89.5416 36.5679C88.196 25.5 79.7709 28.7428 77.6676 33.8585C75.7947 35.3072 73.9035 35.2769 73.8187 35.2769C73.6611 31.3128 71.0547 30.737 69.994 31.234C66.8603 32.6887 67.8241 37.6832 72.0488 37.6832C71.9094 49.3936 65.4784 54.0972 63.6115 43.7627C63.6418 43.4414 71.7094 26.9911 68.1817 15.4626C65.8481 7.84354 55.0287 17.881 60.5869 45.8963C57.8593 50.3028 54.4165 51.2847 54.3983 44.9992C54.3862 41.7988 55.2287 30.343 55.2287 30.343C55.2712 29.6823 54.659 29.6399 54.362 29.5975C53.4588 29.4823 51.7253 29.4399 51.5011 31.5371C51.5011 31.5553 51.0162 39.8774 50.9919 41.2775C50.9737 42.2352 50.7919 43.9203 50.8222 45.6841C49.2826 49.9512 45.3852 51.7878 46.0762 45.6053C46.4338 42.3686 48.4219 35.4284 48.525 35.0708C49.3008 32.3008 46.5793 31.5189 46.1853 31.3795C45.7913 31.2401 43.3486 30.4764 41.5545 29.9612C41.6757 29.2096 41.7788 28.5065 41.803 28.1125C41.8151 27.9306 41.7788 27.5912 41.3181 27.5306C40.6514 27.4336 39.2876 27.4093 39.0148 28.5549C38.6511 30.4279 38.0632 34.9981 37.2934 36.7134C37.1601 36.9983 37.3116 37.1256 37.3116 37.1256L37.5601 37.4044C38.0087 37.9135 38.6269 37.9075 39.13 37.4408C39.8573 36.7558 40.4513 34.798 40.9302 32.4948C42.3788 32.8403 44.47 33.3676 45.3367 33.8161C45.3125 33.9676 43.973 38.9803 43.5002 41.2957C43.0274 43.6112 40.9787 51.6908 45.1852 51.9878C48.2643 52.2121 50.0948 50.0482 51.0646 48.1268C52.7679 55.4428 59.7929 50.9029 61.3264 47.9025C62.8053 53.8244 73.1398 55.7458 73.9338 37.659C74.3581 37.6226 75.4977 37.3923 76.5887 36.9377C75.0249 43.2111 76.4311 51.6545 81.7468 52.0545C87.2383 52.4727 90.0811 44.8113 89.7417 38.5136C90.1053 38.2954 91.5904 37.1862 92.6935 35.4406L92.3116 43.9324C92.0692 50.915 95.9363 54.9094 100.907 49.6724C101.179 49.3875 100.961 48.8602 100.961 48.8602M65.8481 16.6991C67.218 16.3657 67.9695 28.8156 62.9387 40.7502C61.587 34.1131 62.8357 17.4264 65.8481 16.6991ZM72.1155 35.1739C69.2364 35.1739 70.0122 32.4281 70.9456 32.4281C72.4125 32.4281 72.1155 35.1739 72.1155 35.1739ZM87.7111 37.3862C84.3774 38.2954 81.4074 36.7498 81.3892 34.4222C81.365 30.9794 86.9838 28.3185 87.7111 37.3862ZM80.1709 37.7135C81.5165 39.8713 84.9411 40.4108 87.7111 39.4774C87.5899 53.2001 77.7221 52.8546 80.1709 37.7135Z" fill="#E42313"/>
<path d="M31.7655 27.4215C32.5656 18.9417 34.8446 18.7296 34.8446 18.7296C34.8931 18.7296 43.094 19.263 45.4094 13.9533C45.5185 13.7109 45.5792 13.3229 44.9003 13.1896C39.6633 17.3294 30.5108 13.0138 21.6614 14.1473C17.9337 14.4564 15 17.584 15 21.3905C15 29.4217 25.5709 29.6156 25.5709 27.1184L25.4981 25.9728C25.3345 26.0455 25.1284 26.1365 25.1042 26.1486C22.0675 27.3972 18.8125 25.9425 18.8125 22.3118C18.8125 17.1537 25.4193 18.3598 32.1958 18.6629C29.7168 20.8086 27.8135 23.4756 27.5226 29.9914C26.5831 30.5673 24.8011 31.731 23.9161 32.4038C23.7404 32.5372 23.807 32.7251 23.807 32.7251C23.807 32.7251 24.1162 34.0707 24.2798 34.7617C24.789 34.4404 26.6134 33.2463 27.3165 32.6826C26.4801 41.0593 26.4255 50.127 22.4978 50.127C20.4733 50.127 18.0549 45.3386 21.6795 38.9015C21.6795 38.9015 21.922 38.4166 21.7705 37.865C21.6189 37.3195 21.1401 35.4951 21.1401 35.4951C14.5151 41.6352 15.1576 52.0727 22.8433 52.0727C31.8261 52.0727 31.226 33.9616 31.62 29.7066C32.111 29.4884 32.6323 29.3671 32.9232 29.3429C32.9535 30.6824 34.0445 31.7553 35.3962 31.7553C36.7479 31.7553 37.8571 30.6703 37.8753 29.2762C37.9177 25.4819 32.8202 27.0517 31.7776 27.4093" fill="#E42313"/>
<path d="M53.8287 26.391C55.0773 26.4213 56.1077 25.3485 56.1441 23.9908C56.1744 22.6391 55.1925 21.5117 53.9499 21.4874C52.7074 21.4571 51.6709 22.53 51.6406 23.8877C51.6103 25.2394 52.5922 26.3607 53.8348 26.391" fill="#E42313"/>
</svg>
